<svg version="1.2" xmlns="http://www.w3.org/2000/svg" viewBox="0 -13.000000000000016 1153 200.00000000000003" width="450" height="166"><style>tspan{white-space:pre}.a{fill:#c2593f}.b{fill:#7e8d7b}.c{font-size: 50px;line-height: 0px;fill: #2a363b;font-weight: 400;font-family: "RobotoSlab-Regular", "Roboto Slab"}</style><path class="a" d="m17.1 153c-5-0.6-8.3-3.5-9.5-8.2-0.7-2.9-0.7-3.2-0.9-26-0.1-12.3-0.2-23.4-0.2-24.8-0.2-4-0.6-57.7-0.5-59.8 0.5-7.1 3.9-11.3 10.3-12.7 1.5-0.3 2.6-0.3 20.1-0.5 17.5-0.1 26.8-0.3 39.2-0.7 15.6-0.5 37.4-0.6 45.5-0.3 8.2 0.3 9.5 0.5 11 1.9 1.6 1.3 1.7 1.9 2.2 9.6 0.8 11.5 1 15.3 1 25 0 13.8-0.6 24.1-1.7 27.4-0.2 0.6-0.8 0.9-1.2 0.5-0.6-0.4-1.2-3.3-1.6-7.1-0.6-5.4-0.8-12.2-1.2-35.5-0.2-7.7-0.4-14.4-0.5-14.9-0.3-1.6 0.4-1.5-7.5-1.6-26.4-0.4-35-0.5-67.2-0.4-35.4 0.1-35.4 0.1-37 0.4-3.2 0.8-5.2 2.2-6.3 4.5-0.8 1.8-1.1 3.6-1.1 7.1-0.1 9.6 0.2 58.3 0.3 64.9 0.6 24.5 1.1 38.8 1.3 40.6 0.3 2.5 1 3.8 2.7 4.9 1.5 1 2.3 1.2 6.4 1.4 4.4 0.2 53.1 0.1 67.3-0.2 5.2-0.1 15.8-0.2 23.6-0.4 14.9-0.1 15.2-0.1 16.7-0.9 1-0.5 2.2-1.8 2.7-2.9 0.8-1.8 0.8-2.6 1.1-12.3 0.3-11.6 0.7-18.8 1.1-19.2 0.3-0.4 0.8-0.3 1.1 0.1 0.6 1 0.9 7.2 1 18.5 0.1 10.1 0 11.5-0.9 13.9-1.1 2.9-3.4 5.1-6.4 5.9-1.5 0.4-6.2 0.6-21.9 0.9-41 0.7-86.5 1.2-89 0.9z"/><path class="b" d="m89.2 120.2c-0.6-0.7-1.5-2.7-2.1-5.2-0.5-1.8-0.6-2.3-0.6-4.7 0-2.4 0.1-2.9 0.5-4.4 0.6-2.1 1.5-4.1 2.9-6.1 2.1-3.2 5.9-7.2 6.7-7.2 0.7 0 1.4 1.6 2.3 5.4 1.8 8.2 0.1 14.5-5.6 20.2-1.6 1.6-2.8 2.5-3.3 2.5-0.1 0-0.5-0.2-0.8-0.5z"/><path class="b" d="m59.9 130.3l-1.4-1.4-0.7 0.3c-1.3 0.4-4.6 0.5-6.1 0.1-3.6-0.7-6.6-3.2-7.6-6.2-0.2-0.5-0.4-1.2-0.5-1.5-0.1-0.5-0.1-0.5 0.6-0.5 0.4 0 0.7-0.1 0.7-0.2 0.1-0.1 0.3-0.2 0.6-0.3 0.4-0.1 0.4 0 0.6 0.7 0.7 2.7 2.4 4.4 5.3 5.2 0.8 0.3 1.5 0.3 3.3 0.3 1.3-0.1 2.4-0.1 2.5-0.2 0-0.1-0.1-0.8-0.2-1.7-0.6-3.3 0.3-6.6 2.3-8.7 1.2-1.3 2.1-1.8 3.5-1.9 1.6-0.1 2.3 0.1 3.1 0.8 1.1 0.9 1.5 1.8 1.6 3.5q0.2 4.8-5 8.5l-1.5 1 0.8 0.8c0.5 0.4 0.8 0.8 0.8 0.9 0 0.1-0.3 0.4-0.6 0.7-0.3 0.2-0.6 0.6-0.6 0.8-0.1 0.4-0.2 0.4-1.5-0.9zm1-5.4c2.6-1.7 4.4-4.7 4.1-6.7-0.2-0.9-0.9-1.6-1.5-1.6-1.7 0-3.5 2.1-4 4.7-0.3 1.4-0.1 4.2 0.3 4.2 0 0 0.5-0.3 1.1-0.6z"/><path class="b" d="m105.8 133.8c-2.9-0.7-6-2.1-8.4-3.8-2.1-1.5-2.6-2.3-1.6-3.2 1.3-1.3 4.6-2.9 6.9-3.5 2.2-0.6 6-0.6 8 0 3.9 1.1 10.5 5.3 10.5 6.7 0 0.5-0.9 1.1-1.8 1.4-0.2 0.1-0.6 0.2-0.8 0.3-0.4 0.3-3.7 1.5-5.1 2-1.5 0.4-5.9 0.5-7.7 0.1z"/><path class="b" d="m74.8 130.9c-0.6-1.4-0.5-1.7 0-2.3 0.3-0.3 0.5-0.6 0.5-0.6-1.6-1.1-2.9-2.8-3.5-4.5-0.3-0.8-0.4-1.4-0.4-3.1 0-2.1 0-2.3 0.5-3.2 0.6-1.2 1.5-2.2 2.4-2.7 0.3-0.1 1.1-0.3 1.7-0.3 1.1-0.1 1.3-0.1 2.2 0.4 1.9 0.9 3 2.9 3.2 5.9 0 2.1-0.2 3.4-1.1 5.2-0.3 0.8-0.4 1.2-0.3 1.3 0.5 0.3 2.6 0.3 3.9 0 3.4-0.7 5.6-2 11.9-7.3 5.5-4.6 5.8-4.9 6.7-8.2 1.5-5.3 4-9.1 7.6-11.9 2.7-2 5.4-3 9.6-3.8 1.3-0.3 3.2-0.6 4.2-0.8 2.2-0.4 2.9-0.4 3.2-0.1 0.6 0.6 0.3 1.8-1.2 5.7-1.9 4.8-3.7 7.9-6.2 10.3-2.8 2.7-5.7 4.1-10.8 5.1-3.1 0.6-4.2 0.9-4.9 1.1-1.4 0.5-2.9 1.7-6.8 5-5.8 4.9-8.1 6.4-11.7 7.4-1.9 0.5-4.5 0.5-6.5 0.1l-1.3-0.3-0.7 0.7c-0.8 0.8-1.7 1.5-1.9 1.5 0 0-0.2-0.3-0.3-0.6zm3-6.1c1.4-2.7 1.3-6.1-0.3-7.5-0.6-0.6-0.8-0.6-1.4-0.5-2 0.2-2.8 3.4-1.6 6.1 0.5 1.2 2.4 3.1 2.7 2.9 0.1 0 0.4-0.5 0.6-1z"/><path class="b" d="m43.8 122.3c0-0.1-0.1-0.6-0.2-1.2l-0.1-1.1-0.9-0.3c-3.6-1.1-7.4-4.3-9.7-7.8-2.9-4.4-5-11.1-6-18.7-0.3-2.7-0.4-9.1-0.1-11.6 1.1-8.7 3.9-16.8 8-22.9 2.4-3.4 6.1-7.4 8.9-9.5 7.1-5.4 14.9-8.4 23.9-9.3 2.8-0.2 9.1-0.1 11.1 0.3 5.3 1 10.2 3 14.5 5.9 5.6 3.7 8.9 8.6 9.1 13.5 0.2 3.3-0.7 5.6-2.8 7.7-3.8 3.9-9.9 3.8-14.2-0.1-1.3-1.2-2.7-3.3-4-6.2-1.5-3.3-2-4.2-3.3-5.5-1.2-1.1-2.5-1.9-4.5-2.6-2.3-0.9-6.5-0.8-9.3 0.1-5 1.8-10 6.3-12.7 11.7-2.9 5.6-4.2 11.6-4.2 18.9 0 4.1 0.3 6.6 1.3 10.5 0.8 3.1 1.6 5.3 2.9 8.1 1.1 2.2 1.2 2.5 0.8 2.9-0.7 0.8-1.7 0-3-2.3-2.4-4-4-9.1-4.8-14.9-0.5-3.3-0.4-8.9 0-12.1 1.4-8.7 4.3-14.9 9.3-19.9 3.7-3.7 7.8-6 12-6.7 1.6-0.3 5.7-0.3 7.2 0.1 3.9 0.8 7.2 3 9.5 6.2 0.7 1.1 1 1.6 2.6 5 1.9 3.9 3.7 5.6 6.8 6.1 4.3 0.6 7.6-3.3 6.6-8.1-0.3-1.7-1.6-4.1-2.8-5.6-3.6-4.2-10.1-7.7-17.1-9.1-2.2-0.4-2.6-0.4-7-0.4-5.1-0.1-5.9 0.1-10.3 1.1-3.6 0.8-8.1 2.7-11.3 4.7-4.7 2.9-9.6 7.7-12.5 12.3-3.4 5.3-5.8 12-6.8 19.3-0.4 3.1-0.4 9.4 0 12.6 1.3 9.4 4 16.1 8.5 20.6 1.2 1.2 2 1.8 2.9 2.3 0.7 0.3 1.4 0.6 1.5 0.6 0.1 0 0.4-0.5 0.6-1 0.8-2.3 2.4-4 4.5-5.1 1.1-0.5 1.3-0.6 2.9-0.6 1.5 0 1.7 0 2.4 0.5 1.6 1.1 2 3.3 1 5.3-0.6 1.2-2 2.6-3.3 3.3-1.2 0.6-3.3 1.1-4.7 1.1-1 0-1.1 0-1 0.3q0.1 0.4-0.2 0.5c-0.2 0-0.3 0.2-0.3 0.3q0.1 0.2-0.8 0.1c-0.5 0-0.8 0.1-0.7 0.1 0.2 0.2 0.2 0.5 0 0.7 0 0-0.1 0-0.2-0.1zm5.6-5.2c2.7-0.8 4.5-3.1 3.3-4.2-0.8-0.8-3-0.2-4.4 1.4-0.7 0.7-2 2.6-2 3 0 0.2 2.3 0.1 3.1-0.2z"/><path class="b" d="m65.8 133.5c-1.3-0.3-3-1-4-1.6-0.7-0.4-1.4-1.1-1.1-1.1 0.1 0 0.2-0.1 0.2-0.2 0-0.2 0.3-0.4 0.6-0.7 0.3-0.2 0.5-0.5 0.5-0.5-0.1-0.3 0.1-0.2 0.9 0.3 1.5 0.9 2.8 1.3 4.9 1.4 1.9 0.1 2.1 0 3.4-0.4 0.8-0.3 1.9-0.8 2.5-1.3 0.7-0.4 1.1-0.6 1.2-0.5 0 0.1 0.1 0.4 0.1 0.7 0.1 0.3 0.3 0.6 0.4 0.7 0.1 0.1 0.2 0.3 0.1 0.4 0 0.1 0 0.2 0.1 0.2 0.5 0.3-2 1.7-4 2.3-1.6 0.5-4.3 0.6-5.8 0.3z"/><text style="transform:matrix(2.293,0,0,2.293,178,123.559)"><tspan x="0" y="0" class="c">Curiosity</tspan><tspan  y="0" class="c"> </tspan><tspan  y="0" class="c">C</tspan><tspan  y="0" class="c">o</tspan><tspan  y="0" class="c">r</tspan><tspan  y="0" class="c">n</tspan><tspan  y="0" class="c">e</tspan><tspan  y="0" class="c">r
</tspan></text></svg>